<svg width="1133" height="948" viewBox="0 0 1133 948" fill="none" xmlns="http://www.w3.org/2000/svg">
<g clip-path="url(#clip0_165_3429)">
<path opacity="0.0144928" d="M1588.65 767.132L1721.32 528.984C1723.8 524.551 1724.41 519.324 1723.03 514.442L1617.2 139.062C1616.12 135.223 1613.87 131.814 1610.75 129.306L1344.29 -85.4371C1338.64 -89.9845 1330.92 -90.995 1324.29 -88.0546L1106.52 8.55892C1099.89 11.5002 1095.47 17.8964 1095.09 25.1174L1076.94 366.126C1076.73 370.109 1077.77 374.058 1079.91 377.429L1289.05 706.968C1291.77 711.26 1296.09 714.296 1301.04 715.434L1567.43 776.543C1575.82 778.467 1584.47 774.627 1588.65 767.132Z" stroke="url(#paint0_linear_165_3429)" stroke-opacity="0.2" stroke-width="4"/>
<path opacity="0.0289855" d="M1547.26 778.141L1691.59 549.123C1694.3 544.822 1695.19 539.628 1694.08 534.673L1609.08 157.743C1608.2 153.841 1606.13 150.308 1603.14 147.637L1350.2 -78.4009C1344.81 -83.2227 1337.15 -84.6281 1330.39 -82.0399L1109.17 2.57767C1102.4 5.16592 1097.66 11.3111 1096.88 18.4911L1060.71 355.115C1060.28 359.092 1061.1 363.103 1063.07 366.59L1253.03 703.371C1255.52 707.796 1259.68 711.067 1264.58 712.456L1525.62 786.414C1533.89 788.756 1542.7 785.385 1547.26 778.141Z" stroke="url(#paint1_linear_165_3429)" stroke-opacity="0.2" stroke-width="4"/>
<path opacity="0.0434783" d="M1505.8 787.828L1661.18 568.498C1664.13 564.343 1665.31 559.195 1664.45 554.181L1600.16 176.837C1599.49 172.882 1597.59 169.235 1594.73 166.407L1355.78 -70.11C1350.64 -75.1928 1343.09 -76.9872 1336.2 -74.7586L1112.18 -2.2299C1105.3 -0.00136355 1100.24 5.87615 1099.08 12.9951L1045.29 344.294C1044.65 348.255 1045.26 352.317 1047.05 355.912L1217.63 698.845C1219.89 703.404 1223.88 706.876 1228.71 708.516L1483.81 794.947C1491.91 797.691 1500.86 794.796 1505.8 787.828Z" stroke="url(#paint2_linear_165_3429)" stroke-opacity="0.2" stroke-width="4"/>
<path opacity="0.057971" d="M1464.33 796.202L1630.16 587.082C1633.33 583.086 1634.78 578 1634.19 572.94L1590.41 196.298C1589.94 192.3 1588.23 188.549 1585.52 185.571L1360.95 -60.5943C1356.08 -65.9239 1348.64 -68.1014 1341.66 -66.2376L1115.51 -5.85626C1108.53 -3.99162 1103.17 1.60148 1101.64 8.63928L1030.68 333.707C1029.82 337.641 1030.22 341.742 1031.83 345.436L1182.9 693.433C1184.93 698.109 1188.75 701.79 1193.49 703.672L1442.04 802.158C1449.97 805.295 1459.03 802.877 1464.33 796.202Z" stroke="url(#paint3_linear_165_3429)" stroke-opacity="0.2" stroke-width="4"/>
<path opacity="0.0724638" d="M1422.93 803.279L1598.56 604.85C1601.94 601.024 1603.66 596.015 1603.34 590.923L1579.82 216.079C1579.57 212.05 1578.05 208.202 1575.48 205.08L1365.65 -49.8867C1361.08 -55.4488 1353.76 -58.0019 1346.7 -56.507L1119.08 -8.29566C1112.02 -6.79993 1106.38 -1.50547 1104.47 5.43027L1016.86 323.394C1015.79 327.288 1015.97 331.418 1017.39 335.202L1148.9 687.176C1150.69 691.952 1154.31 695.834 1158.97 697.95L1400.41 808.055C1408.15 811.577 1417.29 809.645 1422.93 803.279Z" stroke="url(#paint4_linear_165_3429)" stroke-opacity="0.2" stroke-width="4"/>
<path opacity="0.0869565" d="M1381.66 809.076L1566.42 621.778C1570.01 618.135 1572.01 613.216 1571.96 608.106L1568.38 236.133C1568.34 232.083 1567.02 228.148 1564.6 224.889L1369.82 -38.0245C1365.54 -43.8025 1358.39 -46.7245 1351.27 -45.6002L1122.82 -9.54626C1115.7 -8.42279 1109.8 -3.44121 1107.52 3.37239L1003.81 313.394C1002.53 317.237 1002.49 321.385 1003.71 325.249L1115.66 680.115C1117.2 684.992 1120.63 689.058 1125.17 691.417L1358.98 812.656C1366.51 816.563 1375.71 815.108 1381.66 809.076Z" stroke="url(#paint5_linear_165_3429)" stroke-opacity="0.2" stroke-width="4"/>
<path opacity="0.101449" d="M1340.6 813.61L1533.81 637.847C1537.6 634.396 1539.85 629.583 1540.08 624.47L1556.08 256.41C1556.26 252.35 1555.14 248.339 1552.89 244.952L1373.41 -25.0457C1369.44 -31.0252 1362.45 -34.3053 1355.29 -33.5558L1126.67 -9.61237C1119.51 -8.86283 1113.36 -4.20749 1110.73 2.46474L991.505 303.746C990.011 307.525 989.751 311.68 990.775 315.615L1083.22 672.319C1084.51 677.271 1087.72 681.512 1092.16 684.097L1317.82 815.994C1325.11 820.261 1334.35 819.299 1340.6 813.61Z" stroke="url(#paint6_linear_165_3429)" stroke-opacity="0.2" stroke-width="4"/>
<path opacity="0.115942" d="M1299.82 816.898L1500.77 653.038C1504.75 649.792 1507.26 645.098 1507.76 639.997L1542.92 276.864C1543.31 272.806 1542.41 268.728 1540.32 265.22L1376.36 -10.9943C1372.7 -17.1587 1365.9 -20.7876 1358.73 -20.4129L1130.57 -8.49804C1123.39 -8.12327 1117.02 -3.80674 1114.02 2.70488L979.928 294.484C978.224 298.19 977.745 302.34 978.56 306.335L1051.62 663.819C1052.65 668.839 1055.65 673.247 1059.94 676.058L1276.99 818.094C1284.04 822.712 1293.28 822.226 1299.82 816.898Z" stroke="url(#paint7_linear_165_3429)" stroke-opacity="0.2" stroke-width="4"/>
<path opacity="0.130435" d="M1259.37 818.981L1467.34 667.341C1471.5 664.305 1474.27 659.746 1475.04 654.668L1528.89 297.444C1529.5 293.399 1528.8 289.266 1526.89 285.645L1378.59 4.08427C1375.26 -2.24832 1368.67 -6.21436 1361.5 -6.21436H1134.44C1127.26 -6.21436 1120.68 -2.24832 1117.34 4.08427L969.039 285.645C967.134 289.266 966.429 293.399 967.041 297.444L1020.89 654.668C1021.66 659.746 1024.43 664.305 1028.59 667.341L1236.57 818.981C1243.36 823.933 1252.57 823.933 1259.37 818.981Z" stroke="url(#paint8_linear_165_3429)" stroke-opacity="0.2" stroke-width="4"/>
<path opacity="0.144928" d="M1219.32 819.884L1433.6 680.743C1437.93 677.932 1440.94 673.515 1441.97 668.479L1513.99 318.105C1514.81 314.085 1514.33 309.906 1512.6 306.18L1380.08 20.1425C1377.08 13.6593 1370.71 9.36707 1363.56 8.99313L1138.22 -2.77446C1131.07 -3.14755 1124.29 0.45877 1120.63 6.59394L958.823 277.262C956.715 280.787 955.792 284.892 956.195 288.977L991.061 644.932C991.556 650.05 994.1 654.752 998.104 657.997L1196.6 818.696C1203.12 823.967 1212.29 824.443 1219.32 819.884Z" stroke="url(#paint9_linear_165_3429)" stroke-opacity="0.2" stroke-width="4"/>
<path opacity="0.15942" d="M1179.75 819.633L1399.58 693.224C1404.05 690.656 1407.31 686.398 1408.61 681.412L1498.21 338.798C1499.26 334.813 1499 330.6 1497.45 326.779L1380.77 37.1292C1378.1 30.5122 1371.98 25.9071 1364.87 25.1617L1141.87 1.80639C1134.75 1.06104 1127.8 4.29844 1123.82 10.2186L949.244 269.365C946.943 272.785 945.801 276.849 945.986 280.963L962.147 634.657C962.382 639.802 964.674 644.638 968.519 648.083L1157.17 817.274C1163.39 822.845 1172.5 823.799 1179.75 819.633Z" stroke="url(#paint10_linear_165_3429)" stroke-opacity="0.2" stroke-width="4"/>
<path opacity="0.173913" d="M1140.68 818.278L1365.33 704.802C1369.95 702.468 1373.43 698.385 1375 693.466L1481.58 359.475C1482.84 355.537 1482.79 351.3 1481.44 347.392L1380.61 54.9919C1378.3 48.2594 1372.44 43.3539 1365.37 42.2405L1145.3 7.50825C1138.24 6.39398 1131.14 9.25411 1126.85 14.9426L940.277 261.986C937.784 265.288 936.424 269.301 936.398 273.434L934.182 623.898C934.148 629.057 936.197 634.013 939.866 637.653L1118.33 814.748C1124.24 820.612 1133.24 822.034 1140.68 818.278Z" stroke="url(#paint11_linear_165_3429)" stroke-opacity="0.2" stroke-width="4"/>
<path opacity="0.188406" d="M1102.2 815.852L1330.91 715.451C1335.66 713.368 1339.36 709.469 1341.19 704.634L1464.09 380.089C1465.56 376.209 1465.73 371.96 1464.58 367.975L1379.58 73.6751C1377.61 66.8447 1372.02 61.654 1365.04 60.1767L1148.46 14.3068C1141.49 12.8295 1134.26 15.3048 1129.67 20.7448L931.882 255.151C929.204 258.325 927.625 262.277 927.39 266.416L907.183 612.715C906.88 617.874 908.677 622.935 912.161 626.762L1080.12 811.176C1085.7 817.308 1094.59 819.19 1102.2 815.852Z" stroke="url(#paint12_linear_165_3429)" stroke-opacity="0.2" stroke-width="4"/>
<path opacity="0.202899" d="M1064.34 812.397L1296.37 725.188C1301.23 723.356 1305.14 719.659 1307.23 714.915L1445.75 400.594C1447.43 396.784 1447.83 392.534 1446.87 388.481L1377.62 93.1221C1376 86.2115 1370.69 80.7514 1363.81 78.9144L1151.31 22.1778C1144.43 20.3408 1137.09 22.4263 1132.22 27.6036L924.032 248.887C921.178 251.924 919.39 255.801 918.928 259.937L881.166 601.164C880.595 606.308 882.131 611.464 885.422 615.468L1042.6 806.592C1047.85 812.974 1056.59 815.308 1064.34 812.397Z" stroke="url(#paint13_linear_165_3429)" stroke-opacity="0.2" stroke-width="4"/>
<path opacity="0.217391" d="M1027.18 807.955L1261.75 734.005C1266.7 732.441 1270.83 728.944 1273.17 724.318L1426.57 420.946C1428.46 417.215 1429.08 412.975 1428.33 408.865L1374.69 113.274C1373.43 106.303 1368.42 100.588 1361.66 98.399L1153.77 31.0911C1147.01 28.9019 1139.59 30.5925 1134.45 35.4921L916.695 243.219C913.673 246.107 911.666 249.899 910.994 254.021L856.148 589.301C855.308 594.418 856.576 599.655 859.665 603.825L1005.82 801.045C1010.72 807.662 1019.3 810.44 1027.18 807.955Z" stroke="url(#paint14_linear_165_3429)" stroke-opacity="0.2" stroke-width="4"/>
<path opacity="0.231884" d="M990.733 802.585L1227.1 741.91C1232.15 740.614 1236.46 737.343 1239.05 732.834L1406.57 441.098C1408.66 437.459 1409.5 433.24 1408.96 429.082L1370.79 134.072C1369.88 127.057 1365.19 121.104 1358.56 118.57L1155.8 41.0158C1149.18 38.4811 1141.69 39.7736 1136.3 44.3812L909.827 238.166C906.637 240.898 904.429 244.593 903.539 248.69L832.125 577.186C831.022 582.262 832.024 587.567 834.906 591.894L969.82 794.587C974.371 801.422 982.766 804.626 990.733 802.585Z" stroke="url(#paint15_linear_165_3429)" stroke-opacity="0.2" stroke-width="4"/>
<path opacity="0.246377" d="M955.061 796.327L1192.49 748.912C1197.61 747.892 1202.09 744.847 1204.92 740.472L1385.77 461.008C1388.06 457.471 1389.12 453.285 1388.79 449.089L1365.87 155.453C1365.32 148.414 1360.95 142.24 1354.48 139.368L1157.36 51.9176C1150.88 49.0458 1143.35 49.9375 1137.74 54.2407L903.405 233.751C900.055 236.316 897.637 239.904 896.537 243.964L809.117 564.877C807.749 569.897 808.48 575.256 811.143 579.731L934.652 787.276C938.842 794.303 947.019 797.933 955.061 796.327Z" stroke="url(#paint16_linear_165_3429)" stroke-opacity="0.2" stroke-width="4"/>
<path opacity="0.26087" d="M920.196 789.233L1157.94 755.019C1163.12 754.275 1167.77 751.472 1170.84 747.248L1364.17 480.633C1366.66 477.21 1367.94 473.066 1367.83 468.844L1359.92 177.357C1359.72 170.311 1355.68 163.933 1349.38 160.734L1158.37 63.7596C1152.07 60.5598 1144.52 61.0492 1138.68 65.037L897.369 229.991C893.876 232.38 891.265 235.849 889.947 239.863L787.12 552.431C785.492 557.383 785.949 562.782 788.386 567.393L900.358 779.153C904.161 786.364 912.111 790.396 920.196 789.233Z" stroke="url(#paint17_linear_165_3429)" stroke-opacity="0.2" stroke-width="4"/>
<path opacity="0.275362" d="M886.186 781.362L1123.52 760.256C1128.74 759.787 1133.55 757.227 1136.84 753.17L1341.82 499.932C1344.49 496.631 1345.99 492.544 1346.09 488.305L1352.9 199.719C1353.07 192.685 1349.37 186.123 1343.25 182.604L1158.82 76.5026C1152.7 72.9841 1145.15 73.0728 1139.12 76.7327L891.702 226.9C888.075 229.106 885.271 232.446 883.735 236.402L766.136 539.906C764.249 544.777 764.43 550.202 766.635 554.937L866.961 770.294C870.386 777.656 878.076 782.081 886.186 781.362Z" stroke="url(#paint18_linear_165_3429)" stroke-opacity="0.2" stroke-width="4"/>
<path opacity="0.289855" d="M853.067 772.762L1089.27 764.614C1094.51 764.438 1099.45 762.138 1102.96 758.248L1318.72 518.867C1321.58 515.699 1323.3 511.678 1323.61 507.433L1344.81 222.477C1345.34 215.473 1341.99 208.743 1336.08 204.918L1158.65 90.1047C1152.73 86.2801 1145.2 85.968 1138.99 89.2908L886.363 224.493C882.601 226.507 879.613 229.709 877.866 233.595L746.16 527.36C744.019 532.136 743.921 537.573 745.888 542.422L834.494 760.749C837.536 768.236 844.957 773.038 853.067 772.762Z" stroke="url(#paint19_linear_165_3429)" stroke-opacity="0.2" stroke-width="4"/>
<path opacity="0.304348" d="M820.854 763.493L1055.22 768.136C1060.47 768.245 1065.54 766.203 1069.26 762.498L1294.9 537.399C1297.94 534.374 1299.87 530.431 1300.4 526.19L1335.64 245.565C1336.51 238.61 1333.52 231.732 1327.83 227.611L1157.81 104.525C1152.12 100.404 1144.63 99.694 1138.26 102.671L881.309 222.782C877.422 224.598 874.256 227.649 872.309 231.456L727.185 514.85C724.794 519.517 724.418 524.953 726.142 529.903L802.995 750.569C805.646 758.173 812.772 763.334 820.854 763.493Z" stroke="url(#paint20_linear_165_3429)" stroke-opacity="0.2" stroke-width="4"/>
<path opacity="0.318841" d="M789.585 753.622L1021.42 770.829C1026.67 771.223 1031.86 769.458 1035.77 765.944L1270.4 555.49C1273.61 552.619 1275.75 548.764 1276.5 544.538L1325.38 268.921C1326.6 262.031 1323.97 255.023 1318.51 250.621L1156.28 119.716C1150.82 115.313 1143.4 114.209 1136.89 116.832L876.49 221.776C872.502 223.384 869.161 226.277 867.011 229.994L709.199 502.43C706.566 506.977 705.911 512.398 707.386 517.436L772.483 739.819C774.738 747.523 781.554 753.02 789.585 753.622Z" stroke="url(#paint21_linear_165_3429)" stroke-opacity="0.2" stroke-width="4"/>
<path opacity="0.333333" d="M759.284 743.19L987.921 772.72C993.151 773.398 998.44 771.909 1002.55 768.604L1245.24 573.108C1248.6 570.399 1250.95 566.644 1251.92 562.444L1314.01 292.48C1315.58 285.673 1313.32 278.556 1308.11 273.883L1154.02 135.632C1148.81 130.96 1141.47 129.465 1134.84 131.728L871.889 221.481C867.792 222.877 864.291 225.601 861.94 229.218L692.191 490.157C689.321 494.57 688.387 499.961 689.609 505.077L742.981 728.568C744.838 736.339 751.328 742.161 759.284 743.19Z" stroke="url(#paint22_linear_165_3429)" stroke-opacity="0.2" stroke-width="4"/>
<path opacity="0.347826" d="M729.968 732.273L954.751 773.833C959.956 774.786 965.321 773.582 969.602 770.495L1219.45 590.219C1222.96 587.681 1225.52 584.036 1226.7 579.872L1301.55 316.178C1303.46 309.471 1301.57 302.263 1296.63 297.336L1151 152.225C1146.05 147.297 1138.82 145.419 1132.09 147.316L867.448 221.903C863.267 223.081 859.615 225.627 857.063 229.132L676.143 478.084C673.042 482.351 671.833 487.698 672.797 492.879L714.506 716.864C715.963 724.694 722.111 730.818 729.968 732.273Z" stroke="url(#paint23_linear_165_3429)" stroke-opacity="0.2" stroke-width="4"/>
<path opacity="0.362319" d="M701.655 720.913L921.959 774.184C927.105 775.43 932.545 774.51 936.986 771.649L1193.05 606.792C1196.71 604.434 1199.47 600.909 1200.87 596.793L1288 339.951C1290.23 333.363 1288.73 326.085 1284.06 320.916L1147.18 169.446C1142.51 164.277 1135.4 162.023 1128.59 163.549L863.141 223.044C858.885 223.998 855.082 226.358 852.345 229.742L661.037 466.263C657.712 470.373 656.229 475.662 656.933 480.894L687.071 704.776C688.129 712.64 693.92 719.048 701.655 720.913Z" stroke="url(#paint24_linear_165_3429)" stroke-opacity="0.2" stroke-width="4"/>
<path opacity="0.376812" d="M674.358 709.193L889.57 773.816C894.649 775.339 900.139 774.711 904.748 772.084L1166.1 622.799C1169.9 620.628 1172.84 617.235 1174.46 613.176L1273.35 363.739C1275.91 357.283 1274.78 349.955 1270.4 344.561L1142.55 187.244C1138.16 181.85 1131.2 179.226 1124.34 180.379L858.918 224.906C854.595 225.631 850.657 227.797 847.736 231.05L646.849 454.744C643.309 458.685 641.555 463.904 641.995 469.174L660.687 692.371C661.346 700.242 666.767 706.91 674.358 709.193Z" stroke="url(#paint25_linear_165_3429)" stroke-opacity="0.2" stroke-width="4"/>
<path opacity="0.391304" d="M648.085 697.156L857.625 772.745C862.629 774.552 868.153 774.217 872.896 771.833L1138.62 638.212C1142.55 636.237 1145.68 632.985 1147.5 628.994L1257.63 387.477C1260.5 381.172 1259.75 373.812 1255.66 368.209L1137.08 205.567C1132.99 199.963 1126.2 196.981 1119.29 197.756L854.745 227.487C850.371 227.979 846.3 229.942 843.202 233.054L633.554 443.578C629.809 447.339 627.786 452.473 627.962 457.769L635.359 679.705C635.621 687.569 640.661 694.479 648.085 697.156Z" stroke="url(#paint26_linear_165_3429)" stroke-opacity="0.2" stroke-width="4"/>
<path opacity="0.405797" d="M622.844 684.867L826.156 771.014C831.059 773.088 836.606 773.055 841.481 770.922L1110.65 653.008C1114.69 651.236 1118.01 648.134 1120.04 644.222L1240.84 411.108C1244.02 404.967 1243.65 397.597 1239.87 391.801L1130.75 224.363C1126.97 218.567 1120.37 215.235 1113.44 215.634L850.581 230.784C846.174 231.038 841.985 232.792 838.71 235.754L621.127 432.812C617.184 436.383 614.898 441.418 614.808 446.726L611.094 666.839C610.961 674.669 615.609 681.805 622.844 684.867Z" stroke="url(#paint27_linear_165_3429)" stroke-opacity="0.2" stroke-width="4"/>
<path opacity="0.42029" d="M598.636 672.386L795.192 768.646C799.983 770.997 805.535 771.256 810.529 769.382L1082.23 667.166C1086.38 665.601 1089.87 662.657 1092.1 658.834L1223 434.57C1226.48 428.608 1226.49 421.249 1223.03 415.276L1123.55 243.581C1120.09 237.609 1113.68 233.938 1106.77 233.961L846.392 234.79C841.96 234.804 837.658 236.342 834.223 239.144L609.536 422.491C605.405 425.861 602.86 430.785 602.504 436.093L587.887 653.84C587.364 661.619 591.61 668.948 598.636 672.386Z" stroke="url(#paint28_linear_165_3429)" stroke-opacity="0.2" stroke-width="4"/>
<path opacity="0.434783" d="M575.46 659.779L764.76 765.685C769.424 768.295 774.966 768.855 780.064 767.241L1053.39 680.659C1057.64 679.312 1061.29 676.543 1063.72 672.812L1204.13 457.806C1207.9 452.039 1208.29 444.707 1205.16 438.577L1115.45 263.166C1112.32 257.035 1106.14 253.04 1099.24 252.686L842.144 239.499C837.69 239.27 833.294 240.585 829.703 243.22L598.747 412.659C594.44 415.819 591.641 420.619 591.018 425.912L565.734 640.763C564.827 648.477 568.663 655.981 575.46 659.779Z" stroke="url(#paint29_linear_165_3429)" stroke-opacity="0.2" stroke-width="4"/>
<path opacity="0.449275" d="M553.31 647.1L734.889 762.155C739.411 765.024 744.926 765.886 750.114 764.539L1024.17 693.475C1028.51 692.345 1032.32 689.752 1034.95 686.138L1184.26 480.76C1188.31 475.201 1189.06 467.917 1186.27 461.647L1106.47 283.066C1103.67 276.795 1097.73 272.486 1090.88 271.759L837.792 244.901C833.337 244.428 828.854 245.514 825.114 247.973L588.728 403.357C584.254 406.299 581.208 410.96 580.319 416.227L544.63 627.673C543.343 635.299 546.763 642.95 553.31 647.1Z" stroke="url(#paint30_linear_165_3429)" stroke-opacity="0.2" stroke-width="4"/>
<path opacity="0.463768" d="M532.182 634.405L705.6 758.106C709.967 761.218 715.439 762.38 720.702 761.31L994.629 705.596C999.036 704.693 1003 702.292 1005.82 698.795L1163.42 503.377C1167.72 498.039 1168.85 490.823 1166.39 484.43L1096.58 303.227C1094.12 296.833 1088.43 292.227 1081.65 291.13L833.303 250.984C828.859 250.267 824.302 251.118 820.421 253.392L579.441 394.625C574.811 397.339 571.525 401.85 570.371 407.077L524.562 614.628C522.903 622.146 525.9 629.925 532.182 634.405Z" stroke="url(#paint31_linear_165_3429)" stroke-opacity="0.2" stroke-width="4"/>
<path opacity="0.478261" d="M512.061 621.755L676.916 753.555C681.113 756.918 686.527 758.373 691.849 757.579L964.783 717.007C969.258 716.337 973.363 714.129 976.369 710.766L1141.61 525.607C1146.17 520.501 1147.67 513.372 1145.55 506.875L1085.79 323.597C1083.67 317.099 1078.25 312.209 1071.56 310.747L828.642 257.737C824.223 256.772 819.604 257.386 815.592 259.468L570.846 386.499C566.073 388.976 562.554 393.326 561.138 398.5L505.517 601.685C503.493 609.076 506.063 616.96 512.061 621.755Z" stroke="url(#paint32_linear_165_3429)" stroke-opacity="0.2" stroke-width="4"/>
<path opacity="0.492754" d="M492.934 609.204L648.856 748.561C652.871 752.15 658.208 753.898 663.577 753.396L934.694 727.698C939.219 727.271 943.451 725.263 946.641 722.034L1118.9 547.396C1123.7 542.537 1125.55 535.512 1123.78 528.929L1074.08 344.122C1072.32 337.539 1067.18 332.381 1060.59 330.561L823.776 265.144C819.394 263.933 814.725 264.303 810.589 266.186L562.903 379.012C557.998 381.246 554.255 385.423 552.578 390.53L487.474 588.901C485.096 596.149 487.237 604.112 492.934 609.204Z" stroke="url(#paint33_linear_165_3429)" stroke-opacity="0.2" stroke-width="4"/>
<path opacity="0.507246" d="M474.784 596.808L621.437 743.148C625.256 746.963 630.502 749.004 635.902 748.778L904.396 737.669C908.963 737.477 913.312 735.687 916.67 732.6L1095.31 568.699C1100.33 564.095 1102.53 557.194 1101.12 550.546L1061.48 364.751C1060.06 358.102 1055.23 352.692 1048.76 350.52L818.672 273.188C814.341 271.732 809.633 271.854 805.385 273.532L555.57 372.197C550.546 374.181 546.587 378.173 544.653 383.202L470.416 576.33C467.692 583.417 469.402 591.437 474.784 596.808Z" stroke="url(#paint34_linear_165_3429)" stroke-opacity="0.2" stroke-width="4"/>
<path opacity="0.521739" d="M457.59 584.619L594.673 737.368C598.284 741.392 603.424 743.717 608.839 743.784L873.92 746.904C878.521 746.955 882.979 745.382 886.505 742.446L1070.86 589.47C1076.09 585.132 1078.64 578.372 1077.57 571.676L1047.97 385.433C1046.91 378.736 1042.39 373.093 1036.07 370.577L813.296 281.85C809.031 280.151 804.297 280.023 799.946 281.489L548.804 366.083C543.672 367.811 539.507 371.607 537.32 376.545L454.317 564.027C451.257 570.936 452.538 578.989 457.59 584.619Z" stroke="url(#paint35_linear_165_3429)" stroke-opacity="0.2" stroke-width="4"/>
<path opacity="0.536232" d="M441.328 572.688L568.578 731.245C571.967 735.469 576.984 738.079 582.401 738.43L843.328 755.404C847.937 755.697 852.504 754.341 856.19 751.581L1045.61 609.666C1051.04 605.603 1053.92 599.001 1053.21 592.277L1033.57 406.116C1032.87 399.392 1028.67 393.532 1022.52 390.681L807.621 291.112C803.433 289.172 798.687 288.792 794.243 290.04L542.557 360.696C537.333 362.162 532.969 365.752 530.536 370.585L439.151 552.042C435.769 558.757 436.619 566.82 441.328 572.688Z" stroke="url(#paint36_linear_165_3429)" stroke-opacity="0.2" stroke-width="4"/>
<path opacity="0.550725" d="M425.974 561.065L543.16 724.828C546.318 729.245 551.197 732.123 556.598 732.767L812.651 763.158C817.26 763.702 821.914 762.581 825.758 759.988L1019.6 629.247C1025.2 625.468 1028.42 619.04 1028.06 612.306L1018.3 426.753C1017.95 420.019 1014.08 413.961 1008.11 410.786L801.615 300.953C797.52 298.774 792.774 298.139 788.246 299.163L536.785 356.058C531.481 357.258 526.931 360.632 524.253 365.349L424.889 540.424C421.196 546.93 421.619 554.979 425.974 561.065Z" stroke="url(#paint37_linear_165_3429)" stroke-opacity="0.2" stroke-width="4"/>
<path opacity="0.565217" d="M411.498 549.798L518.428 718.161C521.343 722.754 526.069 725.899 531.44 726.828L781.93 770.177C786.529 770.972 791.261 770.085 795.252 767.667L992.874 648.175C998.642 644.686 1002.16 638.45 1002.16 631.726V447.293C1002.16 440.569 998.642 434.333 992.874 430.844L795.252 311.348C791.261 308.936 786.529 308.045 781.93 308.84L531.44 352.191C526.069 353.121 521.343 356.269 518.428 360.859L411.498 529.22C407.507 535.504 407.507 543.515 411.498 549.798Z" stroke="url(#paint38_linear_165_3429)" stroke-opacity="0.2" stroke-width="4"/>
<path opacity="0.57971" d="M397.869 538.933L494.386 711.276C497.048 716.028 501.607 719.433 506.932 720.654L751.209 776.468C755.784 777.513 760.584 776.861 764.712 774.636L965.463 666.413C971.382 663.226 975.21 657.194 975.563 650.499L985.175 467.691C985.528 460.996 982.355 454.6 976.805 450.812L788.505 322.276C784.633 319.632 779.926 318.486 775.267 319.049L526.474 349.113C521.05 349.768 516.158 352.682 513.013 357.133L398.944 518.477C394.67 524.522 394.251 532.475 397.869 538.933Z" stroke="url(#paint39_linear_165_3429)" stroke-opacity="0.2" stroke-width="4"/>
<path opacity="0.594203" d="M385.053 528.511L471.038 704.208C473.438 709.118 477.815 712.774 483.079 714.271L720.528 782.022C725.067 783.319 729.923 782.909 734.181 780.876L937.431 683.938C943.484 681.052 947.598 675.238 948.303 668.596L967.36 487.901C968.057 481.253 965.245 474.719 959.931 470.642L781.348 333.71C777.607 330.841 772.942 329.438 768.233 329.764L521.836 346.838C516.374 347.216 511.329 349.888 507.959 354.187L387.192 508.233C382.647 514.03 381.818 521.901 385.053 528.511Z" stroke="url(#paint40_linear_165_3429)" stroke-opacity="0.2" stroke-width="4"/>
<path opacity="0.608696" d="M373.015 518.575L448.385 697.013C450.514 702.049 454.694 705.948 459.882 707.738L689.93 786.858C694.417 788.397 699.319 788.246 703.697 786.414L908.82 700.711C914.99 698.134 919.381 692.555 920.431 685.979L948.731 507.88C949.781 501.298 947.338 494.645 942.267 490.294L773.761 345.624C770.164 342.536 765.552 340.877 760.805 340.963L517.48 345.377C511.993 345.476 506.808 347.898 503.219 352.036L376.201 498.532C371.403 504.067 370.168 511.833 373.015 518.575Z" stroke="url(#paint41_linear_165_3429)" stroke-opacity="0.2" stroke-width="4"/>
<path opacity="0.623188" d="M361.719 509.16L426.426 689.71C428.275 694.872 432.246 699.004 437.342 701.071L659.452 790.982C663.876 792.772 668.809 792.864 673.299 791.241L879.68 716.714C885.951 714.447 890.602 709.118 891.987 702.618L929.33 527.585C930.715 521.086 928.641 514.335 923.839 509.726L765.719 357.991C762.279 354.69 757.734 352.777 752.961 352.62L513.353 344.741C507.856 344.56 502.542 346.724 498.746 350.69L365.931 489.409C360.894 494.671 359.264 502.312 361.719 509.16Z" stroke="url(#paint42_linear_165_3429)" stroke-opacity="0.2" stroke-width="4"/>
<path opacity="0.637681" d="M351.122 500.305L405.155 682.357C406.719 687.627 410.468 691.977 415.456 694.311L629.134 794.403C633.481 796.444 638.434 796.787 643.026 795.382L850.061 731.914C856.416 729.965 861.319 724.904 863.04 718.504L909.164 546.975C910.885 540.579 909.181 533.75 904.656 528.898L757.204 370.783C753.934 367.277 749.47 365.111 744.683 364.708L509.408 344.934C503.914 344.473 498.485 346.372 494.487 350.155L356.341 480.898C351.081 485.876 349.065 493.372 351.122 500.305Z" stroke="url(#paint43_linear_165_3429)" stroke-opacity="0.2" stroke-width="4"/>
<path opacity="0.652174" d="M341.186 492.041L384.569 674.979C385.84 680.341 389.354 684.9 394.221 687.502L599.013 797.147C603.27 799.422 608.232 800.033 612.916 798.845L820.02 746.302C826.44 744.679 831.574 739.886 833.621 733.604L888.268 566.014C890.317 559.737 888.99 552.852 884.759 547.774L748.198 383.971C745.109 380.266 740.739 377.851 735.949 377.201L505.593 345.96C500.118 345.217 494.585 346.848 490.396 350.439L347.386 473.03C341.919 477.716 339.528 485.048 341.186 492.041Z" stroke="url(#paint44_linear_165_3429)" stroke-opacity="0.2" stroke-width="4"/>
<path opacity="0.666667" d="M331.867 484.398L364.659 667.617C365.631 673.047 368.898 677.806 373.63 680.676L569.127 799.213C573.282 801.74 578.238 802.601 583.005 801.639L789.603 759.863C796.073 758.558 801.424 754.049 803.79 747.9L866.675 584.665C869.043 578.524 868.094 571.603 864.165 566.317L738.683 397.526C735.789 393.631 731.525 390.969 726.745 390.072L501.859 347.819C496.416 346.797 490.794 348.152 486.423 351.541L339.019 465.836C333.363 470.221 330.609 477.368 331.867 484.398Z" stroke="url(#paint45_linear_165_3429)" stroke-opacity="0.2" stroke-width="4"/>
<path opacity="0.681159" d="M323.122 477.404L345.415 660.306C346.085 665.794 349.094 670.738 353.675 673.858L539.512 800.635C543.551 803.396 548.489 804.517 553.328 803.781L758.865 772.578C765.37 771.591 770.922 767.375 773.597 761.385L844.419 602.893C847.089 596.904 846.527 589.97 842.908 584.493L728.646 411.416C725.956 407.341 721.813 404.437 717.056 403.289L498.157 350.508C492.761 349.207 487.064 350.283 482.52 353.462L331.194 459.339C325.366 463.417 322.263 470.36 323.122 477.404Z" stroke="url(#paint46_linear_165_3429)" stroke-opacity="0.2" stroke-width="4"/>
<path opacity="0.695652" d="M314.905 471.084L326.826 653.081C327.189 658.616 329.93 663.727 334.347 667.099L510.201 801.43C514.111 804.417 519.019 805.797 523.92 805.295L727.86 784.44C734.382 783.779 740.118 779.856 743.094 774.042L821.52 620.667C824.497 614.847 824.306 607.919 821.014 602.271L718.072 425.611C715.599 421.366 711.589 418.223 706.866 416.826L494.438 354.022C489.103 352.444 483.344 353.237 478.637 356.198L323.865 453.562C317.882 457.326 314.444 464.049 314.905 471.084Z" stroke="url(#paint47_linear_165_3429)" stroke-opacity="0.2" stroke-width="4"/>
<path opacity="0.710145" d="M307.17 465.459L308.878 645.978C308.931 651.537 311.394 656.801 315.633 660.415L481.229 801.606C484.997 804.818 489.861 806.466 494.814 806.198L696.641 795.449C703.163 795.097 709.067 791.492 712.333 785.854L798.026 637.958C801.292 632.321 801.477 625.422 798.518 619.621L706.951 440.08C704.705 435.674 700.843 432.298 696.167 430.654L490.654 358.351C485.393 356.5 479.586 357.007 474.729 359.741L316.981 448.525C310.861 451.97 307.103 458.456 307.17 465.459Z" stroke="url(#paint48_linear_165_3429)" stroke-opacity="0.2" stroke-width="4"/>
<path opacity="0.724638" d="M299.871 460.548L291.557 639.028C291.298 644.594 293.473 650 297.521 653.848L452.627 801.204C456.241 804.634 461.049 806.541 466.042 806.516L665.262 805.588C671.769 805.563 677.822 802.267 681.366 796.829L773.971 654.735C777.515 649.301 778.071 642.451 775.453 636.516L695.275 454.79C693.266 450.235 689.563 446.633 684.946 444.74L486.758 363.485C481.586 361.366 475.746 361.583 470.747 364.084L310.496 444.245C304.256 447.366 300.194 453.6 299.871 460.548Z" stroke="url(#paint49_linear_165_3429)" stroke-opacity="0.2" stroke-width="4"/>
<path opacity="0.73913" d="M292.958 456.366L274.845 632.264C274.272 637.822 276.152 643.352 279.995 647.419L424.425 800.242C427.871 803.89 432.611 806.048 437.634 806.274L633.775 814.865C640.25 815.149 646.436 812.18 650.245 806.96L749.388 670.98C753.198 665.76 754.122 658.976 751.852 652.93L683.034 469.711C681.272 465.019 677.742 461.197 673.196 459.058L482.703 369.412C477.633 367.026 471.774 366.953 466.646 369.213L304.357 440.734C298.017 443.528 293.666 449.495 292.958 456.366Z" stroke="url(#paint50_linear_165_3429)" stroke-opacity="0.2" stroke-width="4"/>
<path opacity="0.753623" d="M286.387 452.927L258.722 625.716C257.837 631.246 259.413 636.886 263.041 641.164L396.651 798.745C399.919 802.593 404.575 805.019 409.618 805.487L602.233 823.289C608.66 823.883 614.961 821.239 619.023 816.237L724.32 686.674C728.382 681.671 729.669 674.987 727.749 668.839L670.223 484.81C668.718 479.993 665.373 475.958 660.91 473.574L478.444 376.112C473.491 373.466 467.627 373.102 462.381 375.115L298.515 438.004C292.092 440.468 287.471 446.154 286.387 452.927Z" stroke="url(#paint51_linear_165_3429)" stroke-opacity="0.2" stroke-width="4"/>
<path opacity="0.768116" d="M280.107 450.239L243.17 619.413C241.972 624.899 243.239 630.632 246.638 635.11L369.333 796.737C372.41 800.794 376.971 803.471 382.021 804.182L570.687 830.859C577.052 831.755 583.448 829.446 587.75 824.686L698.803 701.782C703.105 697.022 704.746 690.447 703.183 684.231L656.838 500.055C655.598 495.126 652.451 490.886 648.085 488.26L473.938 383.568C469.115 380.668 463.26 380.011 457.909 381.772L292.92 436.059C286.432 438.193 281.559 443.586 280.107 450.239Z" stroke="url(#paint52_linear_165_3429)" stroke-opacity="0.2" stroke-width="4"/>
<path opacity="0.782609" d="M274.071 448.31L228.167 613.382C226.659 618.806 227.609 624.617 230.769 629.282L342.495 794.261C345.37 798.511 349.822 801.43 354.868 802.4L539.19 837.585C545.476 838.782 551.95 836.799 556.476 832.29L672.879 716.304C677.405 711.795 679.394 705.345 678.189 699.08L642.878 515.415C641.911 510.387 638.973 505.95 634.714 503.086L469.143 391.759C464.461 388.61 458.63 387.662 453.186 389.166L287.523 434.906C280.988 436.709 275.882 441.798 274.071 448.31Z" stroke="url(#paint53_linear_165_3429)" stroke-opacity="0.2" stroke-width="4"/>
<path opacity="0.797101" d="M268.23 447.143L213.69 607.649C211.874 612.994 212.504 618.864 215.413 623.705L316.162 791.341C318.821 795.767 323.153 798.946 328.185 800.159L507.789 843.475C513.982 844.972 520.517 843.324 525.252 839.074L646.588 730.216C651.323 725.966 653.65 719.658 652.807 713.368L628.341 530.857C627.655 525.744 624.939 521.119 620.8 518.021L464.017 400.66C459.489 397.271 453.696 396.033 448.172 397.273L282.272 434.544C275.709 436.018 270.388 440.792 268.23 447.143Z" stroke="url(#paint54_linear_165_3429)" stroke-opacity="0.2" stroke-width="4"/>
<path opacity="0.811594" d="M262.537 446.739L199.715 602.239C197.594 607.487 197.9 613.399 200.549 618.403L290.353 788.004C292.787 792.605 296.985 796.026 301.99 797.49L476.535 848.552C482.621 850.334 489.197 849.029 494.127 845.047L619.97 743.508C624.899 739.526 627.554 733.394 627.071 727.087L613.229 546.35C612.832 541.167 610.347 536.365 606.34 533.036L458.522 410.245C454.161 406.623 448.421 405.097 442.829 406.072L277.121 434.972C270.545 436.119 265.03 440.569 262.537 446.739Z" stroke="url(#paint55_linear_165_3429)" stroke-opacity="0.2" stroke-width="4"/>
<path opacity="0.826087" d="M256.945 447.097L186.217 597.174C183.797 602.308 183.775 608.244 186.154 613.396L265.088 784.289C267.286 789.049 271.338 792.705 276.306 794.42L445.475 852.835C451.44 854.902 458.039 853.923 463.147 850.225L593.066 756.165C598.174 752.467 601.145 746.52 601.023 740.229L597.545 561.863C597.442 556.625 595.201 551.654 591.337 548.1L452.619 420.489C448.437 416.642 442.764 414.829 437.116 415.535L272.018 436.186C265.449 437.007 259.759 441.125 256.945 447.097Z" stroke="url(#paint56_linear_165_3429)" stroke-opacity="0.2" stroke-width="4"/>
<path opacity="0.84058" d="M251.407 448.213L173.17 592.475C170.456 597.478 170.103 603.42 172.205 608.708L240.385 780.224C242.337 785.134 246.23 789.033 251.15 790.998L414.654 856.341C420.485 858.674 427.09 858.03 432.359 854.626L565.919 768.195C571.188 764.79 574.463 759.034 574.698 752.777L581.292 577.365C581.491 572.087 579.503 566.959 575.795 563.185L446.275 431.359C442.283 427.295 436.691 425.199 431 425.634L266.917 438.176C260.37 438.676 254.528 442.457 251.407 448.213Z" stroke="url(#paint57_linear_165_3429)" stroke-opacity="0.2" stroke-width="4"/>
<path opacity="0.855072" d="M245.876 450.077L160.546 588.16C157.547 593.015 156.862 598.946 158.678 604.353L216.26 775.849C217.956 780.901 221.677 785.026 226.537 787.242L384.118 859.093C389.802 861.686 396.393 861.376 401.807 858.265L538.569 779.58C543.983 776.468 547.549 770.938 548.138 764.731L564.479 592.826C564.983 587.524 563.259 582.251 559.718 578.263L439.456 442.824C435.664 438.553 430.168 436.179 424.448 436.34L261.771 440.932C255.265 441.116 249.289 444.554 245.876 450.077Z" stroke="url(#paint58_linear_165_3429)" stroke-opacity="0.2" stroke-width="4"/>
<path opacity="0.869565" d="M240.309 452.681L148.321 584.248C145.04 588.938 144.025 594.839 145.547 600.35L192.725 771.198C194.156 776.376 197.693 780.726 202.482 783.185L353.908 861.117C359.433 863.961 365.994 863.978 371.535 861.167L511.057 790.329C516.598 787.518 520.439 782.215 521.379 776.091L547.113 608.216C547.927 602.907 546.476 597.5 543.112 593.303L432.131 454.85C428.55 450.383 423.162 447.734 417.425 447.621L256.535 444.442C250.085 444.315 243.996 447.406 240.309 452.681Z" stroke="url(#paint59_linear_165_3429)" stroke-opacity="0.2" stroke-width="4"/>
<path opacity="0.884058" d="M234.66 456.011L136.461 580.754C132.911 585.264 131.564 591.115 132.785 596.717L169.792 766.304C170.947 771.599 174.289 776.158 178.996 778.877L324.065 862.439C329.419 865.526 335.932 865.869 341.582 863.359L483.422 800.435C489.072 797.933 493.175 792.881 494.458 786.849L529.202 623.508C530.329 618.208 529.162 612.68 525.987 608.282L424.269 467.403C420.909 462.75 415.643 459.832 409.904 459.443L251.163 448.689C244.784 448.257 238.605 450.998 234.66 456.011Z" stroke="url(#paint60_linear_165_3429)" stroke-opacity="0.2" stroke-width="4"/>
<path opacity="0.898551" d="M228.888 460.051L124.942 577.69C121.131 582.004 119.454 587.789 120.371 593.462L147.47 761.201C148.342 766.605 151.476 771.373 156.09 774.326L294.627 863.1C299.801 866.412 306.249 867.073 311.991 864.873L455.705 809.904C461.448 807.713 465.796 802.919 467.414 797.005L510.759 638.671C512.202 633.398 511.326 627.761 508.35 623.17L415.846 480.445C412.717 475.618 407.586 472.436 401.858 471.772L245.613 453.654C239.322 452.925 233.073 455.316 228.888 460.051Z" stroke="url(#paint61_linear_165_3429)" stroke-opacity="0.2" stroke-width="4"/>
<path opacity="0.913043" d="M222.952 464.786L113.733 575.07C109.671 579.172 107.668 584.872 108.274 590.602L125.766 755.939C126.347 761.418 129.262 766.396 133.772 769.591L265.631 863.116C270.613 866.647 276.98 867.617 282.795 865.735L427.946 818.746C433.762 816.864 438.338 812.347 440.284 806.566L491.794 653.681C493.556 648.451 492.981 642.72 490.214 637.942L406.837 493.939C403.947 488.948 398.965 485.51 393.259 484.571L239.843 459.317C233.656 458.299 227.357 460.338 222.952 464.786Z" stroke="url(#paint62_linear_165_3429)" stroke-opacity="0.2" stroke-width="4"/>
<path opacity="0.927536" d="M216.811 470.193L102.803 572.904C98.5025 576.779 96.177 582.374 96.4683 588.145L104.686 750.535C104.967 756.098 107.652 761.259 112.047 764.698L237.111 862.531C241.892 866.27 248.161 867.55 254.032 865.977L400.181 826.961C406.052 825.389 410.84 821.164 413.104 815.542L472.322 668.504C474.403 663.343 474.137 657.529 471.589 652.573L397.22 507.846C394.577 502.703 389.756 499.016 384.086 497.803L233.814 465.654C227.744 464.355 221.416 466.044 216.811 470.193Z" stroke="url(#paint63_linear_165_3429)" stroke-opacity="0.2" stroke-width="4"/>
<path opacity="0.942029" d="M210.427 476.253L92.1243 571.199C87.5967 574.833 84.953 580.306 84.9278 586.099L84.2302 745.039C84.2058 750.661 86.6489 756.006 90.9187 759.678L209.098 861.376C213.669 865.308 219.825 866.889 225.733 865.634L372.449 834.565C378.357 833.311 383.337 829.379 385.908 823.933L452.359 683.127C454.759 678.041 454.808 672.16 452.491 667.04L386.976 522.126C384.588 516.844 379.939 512.915 374.319 511.431L227.488 472.64C221.548 471.07 215.213 472.412 210.427 476.253Z" stroke="url(#paint64_linear_165_3429)" stroke-opacity="0.2" stroke-width="4"/>
<path opacity="0.956522" d="M203.766 482.939L81.6671 569.961C76.9257 573.34 73.9702 578.673 73.6252 584.471L64.4021 739.476C64.0649 745.148 66.2562 750.669 70.3896 754.576L181.621 859.695C185.975 863.811 192.002 865.676 197.93 864.739L344.786 841.567C350.713 840.63 355.867 837 358.733 831.746L431.92 697.524C434.639 692.529 435.009 686.598 432.931 681.32L376.089 536.737C373.963 531.329 369.498 527.167 363.94 525.413L220.83 480.246C215.034 478.417 208.711 479.415 203.766 482.939Z" stroke="url(#paint65_linear_165_3429)" stroke-opacity="0.2" stroke-width="4"/>
<path opacity="0.971014" d="M196.792 490.226L71.4002 569.195C66.4593 572.306 63.1989 577.481 62.533 583.268L45.1991 733.896C44.5435 739.593 46.472 745.282 50.459 749.414L154.708 857.528C158.837 861.811 164.721 863.953 170.65 863.334L317.227 847.983C323.155 847.364 328.463 844.043 331.609 838.999L411.021 711.653C414.059 706.784 414.758 700.82 412.928 695.382L364.543 551.638C362.684 546.116 358.416 541.73 352.933 539.711L213.805 488.444C208.165 486.365 201.875 487.025 196.792 490.226Z" stroke="url(#paint66_linear_165_3429)" stroke-opacity="0.2" stroke-width="4"/>
<path opacity="0.985507" d="M189.472 498.085L61.2944 568.903C56.1688 571.736 52.6115 576.733 51.6245 582.49L26.6178 728.325C25.6386 734.039 27.294 739.886 31.1244 744.244L128.38 854.91C132.279 859.344 138.006 861.753 143.917 861.443L289.804 853.831C295.715 853.521 301.158 850.526 304.571 845.708L389.684 725.514C393.036 720.779 394.069 714.798 392.496 709.218L352.328 566.787C350.743 561.165 346.68 556.565 341.286 554.282L206.382 497.202C200.909 494.886 194.671 495.213 189.472 498.085Z" stroke="url(#paint67_linear_165_3429)" stroke-opacity="0.2" stroke-width="4"/>
<path d="M181.777 506.488L51.3207 569.088C46.0264 571.629 42.1812 576.433 40.8736 582.142L8.65373 722.804C7.34614 728.509 8.71846 734.499 12.3823 739.083L102.661 851.882C106.324 856.458 111.88 859.126 117.757 859.126H262.551C268.428 859.126 273.984 856.458 277.648 851.882L367.926 739.083C371.59 734.499 372.963 728.509 371.655 722.804L339.435 582.142C338.127 576.433 334.282 571.629 328.988 569.088L198.532 506.488C193.238 503.947 187.071 503.947 181.777 506.488Z" stroke="url(#paint68_linear_165_3429)" stroke-opacity="0.2" stroke-width="4"/>
<g clip-path="url(#clip1_165_3429)">
<g opacity="0.3" filter="url(#filter0_f_165_3429)">
<path opacity="0.5" d="M361.404 591.74C365.648 606.372 382.14 613.417 384.695 629.142C385.058 633.373 389.683 641.325 405.278 639.288C420.308 648.023 466.842 631.051 478.205 645.65C486.569 656.397 495.777 669.801 492.527 689.125C490.021 704.024 481.682 718.711 473.23 731.392C460.983 749.76 446.53 766.465 430.916 779.691C380.033 822.807 321.774 834.031 271.358 834.184C209.929 834.375 156.712 810.658 111.916 772.73C93.44 757.088 76.8926 738.982 64.1719 715.934C52.4647 694.715 42.938 670.99 35.5857 645.872C26.2187 613.898 20.9425 578.049 24.8674 539.262C27.8464 509.762 40.5057 481.631 58.0358 455.949C81.9907 420.84 114.195 400.905 145.379 398.658C164.617 397.273 185.974 405.603 186.864 431.608C187.54 451.447 178.376 473.742 172.43 494.109C168.462 507.721 163.051 526.997 172.123 534.096C187.466 546.105 208.835 549.554 228.183 551.987C252.9 555.094 279.361 548.407 305.085 546.772C319.9 545.83 331.902 553.094 342.442 561.977C350.913 569.121 357.761 579.196 361.404 591.74Z" fill="#17C964" fill-opacity="0.6"/>
</g>
</g>
</g>
<defs>
<filter id="filter0_f_165_3429" x="-226.443" y="148.513" width="969.639" height="935.673" filterUnits="userSpaceOnUse" color-interpolation-filters="sRGB">
<feFlood flood-opacity="0" result="BackgroundImageFix"/>
<feBlend mode="normal" in="SourceGraphic" in2="BackgroundImageFix" result="shape"/>
<feGaussianBlur stdDeviation="125" result="effect1_foregroundBlur_165_3429"/>
</filter>
<linearGradient id="paint0_linear_165_3429" x1="1582.45" y1="781.704" x2="1183.44" y2="-117.679" gradientUnits="userSpaceOnUse">
<stop stop-color="#FF1CF7"/>
<stop offset="1" stop-color="#00F0FF" stop-opacity="0.2"/>
</linearGradient>
<linearGradient id="paint1_linear_165_3429" x1="1540.31" y1="792.32" x2="1191.95" y2="-118.442" gradientUnits="userSpaceOnUse">
<stop stop-color="#FF1CF7"/>
<stop offset="1" stop-color="#00F0FF" stop-opacity="0.2"/>
</linearGradient>
<linearGradient id="paint2_linear_165_3429" x1="1498.12" y1="801.564" x2="1200.47" y2="-117.763" gradientUnits="userSpaceOnUse">
<stop stop-color="#FF1CF7"/>
<stop offset="1" stop-color="#00F0FF" stop-opacity="0.2"/>
</linearGradient>
<linearGradient id="paint3_linear_165_3429" x1="1455.95" y1="809.469" x2="1208.95" y2="-115.658" gradientUnits="userSpaceOnUse">
<stop stop-color="#FF1CF7"/>
<stop offset="1" stop-color="#00F0FF" stop-opacity="0.2"/>
</linearGradient>
<linearGradient id="paint4_linear_165_3429" x1="1413.87" y1="816.036" x2="1217.29" y2="-112.146" gradientUnits="userSpaceOnUse">
<stop stop-color="#FF1CF7"/>
<stop offset="1" stop-color="#00F0FF" stop-opacity="0.2"/>
</linearGradient>
<linearGradient id="paint5_linear_165_3429" x1="1371.97" y1="821.281" x2="1225.43" y2="-107.251" gradientUnits="userSpaceOnUse">
<stop stop-color="#FF1CF7"/>
<stop offset="1" stop-color="#00F0FF" stop-opacity="0.2"/>
</linearGradient>
<linearGradient id="paint6_linear_165_3429" x1="1330.31" y1="825.238" x2="1233.3" y2="-100.998" gradientUnits="userSpaceOnUse">
<stop stop-color="#FF1CF7"/>
<stop offset="1" stop-color="#00F0FF" stop-opacity="0.2"/>
</linearGradient>
<linearGradient id="paint7_linear_165_3429" x1="1288.95" y1="827.923" x2="1240.84" y2="-93.4163" gradientUnits="userSpaceOnUse">
<stop stop-color="#FF1CF7"/>
<stop offset="1" stop-color="#00F0FF" stop-opacity="0.2"/>
</linearGradient>
<linearGradient id="paint8_linear_165_3429" x1="1247.97" y1="829.37" x2="1247.97" y2="-84.5378" gradientUnits="userSpaceOnUse">
<stop stop-color="#FF1CF7"/>
<stop offset="1" stop-color="#00F0FF" stop-opacity="0.2"/>
</linearGradient>
<linearGradient id="paint9_linear_165_3429" x1="1207.43" y1="829.613" x2="1254.63" y2="-74.3964" gradientUnits="userSpaceOnUse">
<stop stop-color="#FF1CF7"/>
<stop offset="1" stop-color="#00F0FF" stop-opacity="0.2"/>
</linearGradient>
<linearGradient id="paint10_linear_165_3429" x1="1167.38" y1="828.676" x2="1260.77" y2="-63.0311" gradientUnits="userSpaceOnUse">
<stop stop-color="#FF1CF7"/>
<stop offset="1" stop-color="#00F0FF" stop-opacity="0.2"/>
</linearGradient>
<linearGradient id="paint11_linear_165_3429" x1="1127.9" y1="826.61" x2="1266.32" y2="-50.4804" gradientUnits="userSpaceOnUse">
<stop stop-color="#FF1CF7"/>
<stop offset="1" stop-color="#00F0FF" stop-opacity="0.2"/>
</linearGradient>
<linearGradient id="paint12_linear_165_3429" x1="1089.03" y1="823.456" x2="1271.24" y2="-36.7861" gradientUnits="userSpaceOnUse">
<stop stop-color="#FF1CF7"/>
<stop offset="1" stop-color="#00F0FF" stop-opacity="0.2"/>
</linearGradient>
<linearGradient id="paint13_linear_165_3429" x1="1050.84" y1="819.257" x2="1275.45" y2="-21.9937" gradientUnits="userSpaceOnUse">
<stop stop-color="#FF1CF7"/>
<stop offset="1" stop-color="#00F0FF" stop-opacity="0.2"/>
</linearGradient>
<linearGradient id="paint14_linear_165_3429" x1="1013.38" y1="814.062" x2="1278.93" y2="-6.14888" gradientUnits="userSpaceOnUse">
<stop stop-color="#FF1CF7"/>
<stop offset="1" stop-color="#00F0FF" stop-opacity="0.2"/>
</linearGradient>
<linearGradient id="paint15_linear_165_3429" x1="976.679" y1="807.913" x2="1281.61" y2="10.7" gradientUnits="userSpaceOnUse">
<stop stop-color="#FF1CF7"/>
<stop offset="1" stop-color="#00F0FF" stop-opacity="0.2"/>
</linearGradient>
<linearGradient id="paint16_linear_165_3429" x1="940.798" y1="800.878" x2="1283.46" y2="28.5014" gradientUnits="userSpaceOnUse">
<stop stop-color="#FF1CF7"/>
<stop offset="1" stop-color="#00F0FF" stop-opacity="0.2"/>
</linearGradient>
<linearGradient id="paint17_linear_165_3429" x1="905.773" y1="792.998" x2="1284.42" y2="47.2031" gradientUnits="userSpaceOnUse">
<stop stop-color="#FF1CF7"/>
<stop offset="1" stop-color="#00F0FF" stop-opacity="0.2"/>
</linearGradient>
<linearGradient id="paint18_linear_165_3429" x1="871.646" y1="784.331" x2="1284.46" y2="66.7501" gradientUnits="userSpaceOnUse">
<stop stop-color="#FF1CF7"/>
<stop offset="1" stop-color="#00F0FF" stop-opacity="0.2"/>
</linearGradient>
<linearGradient id="paint19_linear_165_3429" x1="838.444" y1="774.937" x2="1283.55" y2="87.0865" gradientUnits="userSpaceOnUse">
<stop stop-color="#FF1CF7"/>
<stop offset="1" stop-color="#00F0FF" stop-opacity="0.2"/>
</linearGradient>
<linearGradient id="paint20_linear_165_3429" x1="806.202" y1="764.882" x2="1281.64" y2="108.154" gradientUnits="userSpaceOnUse">
<stop stop-color="#FF1CF7"/>
<stop offset="1" stop-color="#00F0FF" stop-opacity="0.2"/>
</linearGradient>
<linearGradient id="paint21_linear_165_3429" x1="774.947" y1="754.207" x2="1278.7" y2="129.893" gradientUnits="userSpaceOnUse">
<stop stop-color="#FF1CF7"/>
<stop offset="1" stop-color="#00F0FF" stop-opacity="0.2"/>
</linearGradient>
<linearGradient id="paint22_linear_165_3429" x1="744.701" y1="742.998" x2="1274.72" y2="152.242" gradientUnits="userSpaceOnUse">
<stop stop-color="#FF1CF7"/>
<stop offset="1" stop-color="#00F0FF" stop-opacity="0.2"/>
</linearGradient>
<linearGradient id="paint23_linear_165_3429" x1="715.485" y1="731.295" x2="1269.65" y2="175.139" gradientUnits="userSpaceOnUse">
<stop stop-color="#FF1CF7"/>
<stop offset="1" stop-color="#00F0FF" stop-opacity="0.2"/>
</linearGradient>
<linearGradient id="paint24_linear_165_3429" x1="687.314" y1="719.173" x2="1263.49" y2="198.518" gradientUnits="userSpaceOnUse">
<stop stop-color="#FF1CF7"/>
<stop offset="1" stop-color="#00F0FF" stop-opacity="0.2"/>
</linearGradient>
<linearGradient id="paint25_linear_165_3429" x1="660.201" y1="706.684" x2="1256.21" y2="222.316" gradientUnits="userSpaceOnUse">
<stop stop-color="#FF1CF7"/>
<stop offset="1" stop-color="#00F0FF" stop-opacity="0.2"/>
</linearGradient>
<linearGradient id="paint26_linear_165_3429" x1="634.153" y1="693.91" x2="1247.81" y2="246.467" gradientUnits="userSpaceOnUse">
<stop stop-color="#FF1CF7"/>
<stop offset="1" stop-color="#00F0FF" stop-opacity="0.2"/>
</linearGradient>
<linearGradient id="paint27_linear_165_3429" x1="609.177" y1="680.893" x2="1238.26" y2="270.903" gradientUnits="userSpaceOnUse">
<stop stop-color="#FF1CF7"/>
<stop offset="1" stop-color="#00F0FF" stop-opacity="0.2"/>
</linearGradient>
<linearGradient id="paint28_linear_165_3429" x1="585.272" y1="667.709" x2="1227.56" y2="295.558" gradientUnits="userSpaceOnUse">
<stop stop-color="#FF1CF7"/>
<stop offset="1" stop-color="#00F0FF" stop-opacity="0.2"/>
</linearGradient>
<linearGradient id="paint29_linear_165_3429" x1="562.438" y1="654.417" x2="1215.71" y2="320.365" gradientUnits="userSpaceOnUse">
<stop stop-color="#FF1CF7"/>
<stop offset="1" stop-color="#00F0FF" stop-opacity="0.2"/>
</linearGradient>
<linearGradient id="paint30_linear_165_3429" x1="540.666" y1="641.071" x2="1202.71" y2="345.255" gradientUnits="userSpaceOnUse">
<stop stop-color="#FF1CF7"/>
<stop offset="1" stop-color="#00F0FF" stop-opacity="0.2"/>
</linearGradient>
<linearGradient id="paint31_linear_165_3429" x1="519.95" y1="627.738" x2="1188.57" y2="370.161" gradientUnits="userSpaceOnUse">
<stop stop-color="#FF1CF7"/>
<stop offset="1" stop-color="#00F0FF" stop-opacity="0.2"/>
</linearGradient>
<linearGradient id="paint32_linear_165_3429" x1="500.275" y1="614.476" x2="1173.29" y2="395.017" gradientUnits="userSpaceOnUse">
<stop stop-color="#FF1CF7"/>
<stop offset="1" stop-color="#00F0FF" stop-opacity="0.2"/>
</linearGradient>
<linearGradient id="paint33_linear_165_3429" x1="481.624" y1="601.343" x2="1156.9" y2="419.757" gradientUnits="userSpaceOnUse">
<stop stop-color="#FF1CF7"/>
<stop offset="1" stop-color="#00F0FF" stop-opacity="0.2"/>
</linearGradient>
<linearGradient id="paint34_linear_165_3429" x1="463.98" y1="588.395" x2="1139.39" y2="444.317" gradientUnits="userSpaceOnUse">
<stop stop-color="#FF1CF7"/>
<stop offset="1" stop-color="#00F0FF" stop-opacity="0.2"/>
</linearGradient>
<linearGradient id="paint35_linear_165_3429" x1="447.32" y1="575.685" x2="1120.81" y2="468.632" gradientUnits="userSpaceOnUse">
<stop stop-color="#FF1CF7"/>
<stop offset="1" stop-color="#00F0FF" stop-opacity="0.2"/>
</linearGradient>
<linearGradient id="paint36_linear_165_3429" x1="431.618" y1="563.268" x2="1101.17" y2="492.643" gradientUnits="userSpaceOnUse">
<stop stop-color="#FF1CF7"/>
<stop offset="1" stop-color="#00F0FF" stop-opacity="0.2"/>
</linearGradient>
<linearGradient id="paint37_linear_165_3429" x1="416.848" y1="551.193" x2="1080.51" y2="516.287" gradientUnits="userSpaceOnUse">
<stop stop-color="#FF1CF7"/>
<stop offset="1" stop-color="#00F0FF" stop-opacity="0.2"/>
</linearGradient>
<linearGradient id="paint38_linear_165_3429" x1="402.976" y1="539.51" x2="1058.85" y2="539.51" gradientUnits="userSpaceOnUse">
<stop stop-color="#FF1CF7"/>
<stop offset="1" stop-color="#00F0FF" stop-opacity="0.2"/>
</linearGradient>
<linearGradient id="paint39_linear_165_3429" x1="389.971" y1="528.264" x2="1036.24" y2="562.255" gradientUnits="userSpaceOnUse">
<stop stop-color="#FF1CF7"/>
<stop offset="1" stop-color="#00F0FF" stop-opacity="0.2"/>
</linearGradient>
<linearGradient id="paint40_linear_165_3429" x1="377.797" y1="517.501" x2="1012.7" y2="584.471" gradientUnits="userSpaceOnUse">
<stop stop-color="#FF1CF7"/>
<stop offset="1" stop-color="#00F0FF" stop-opacity="0.2"/>
</linearGradient>
<linearGradient id="paint41_linear_165_3429" x1="366.415" y1="507.261" x2="988.298" y2="606.109" gradientUnits="userSpaceOnUse">
<stop stop-color="#FF1CF7"/>
<stop offset="1" stop-color="#00F0FF" stop-opacity="0.2"/>
</linearGradient>
<linearGradient id="paint42_linear_165_3429" x1="355.786" y1="497.582" x2="963.058" y2="627.124" gradientUnits="userSpaceOnUse">
<stop stop-color="#FF1CF7"/>
<stop offset="1" stop-color="#00F0FF" stop-opacity="0.2"/>
</linearGradient>
<linearGradient id="paint43_linear_165_3429" x1="345.868" y1="488.502" x2="937.046" y2="647.474" gradientUnits="userSpaceOnUse">
<stop stop-color="#FF1CF7"/>
<stop offset="1" stop-color="#00F0FF" stop-opacity="0.2"/>
</linearGradient>
<linearGradient id="paint44_linear_165_3429" x1="336.619" y1="480.053" x2="910.299" y2="667.116" gradientUnits="userSpaceOnUse">
<stop stop-color="#FF1CF7"/>
<stop offset="1" stop-color="#00F0FF" stop-opacity="0.2"/>
</linearGradient>
<linearGradient id="paint45_linear_165_3429" x1="327.99" y1="472.266" x2="882.871" y2="686.026" gradientUnits="userSpaceOnUse">
<stop stop-color="#FF1CF7"/>
<stop offset="1" stop-color="#00F0FF" stop-opacity="0.2"/>
</linearGradient>
<linearGradient id="paint46_linear_165_3429" x1="319.94" y1="465.169" x2="854.816" y2="704.164" gradientUnits="userSpaceOnUse">
<stop stop-color="#FF1CF7"/>
<stop offset="1" stop-color="#00F0FF" stop-opacity="0.2"/>
</linearGradient>
<linearGradient id="paint47_linear_165_3429" x1="312.417" y1="458.786" x2="826.199" y2="721.503" gradientUnits="userSpaceOnUse">
<stop stop-color="#FF1CF7"/>
<stop offset="1" stop-color="#00F0FF" stop-opacity="0.2"/>
</linearGradient>
<linearGradient id="paint48_linear_165_3429" x1="305.374" y1="453.137" x2="797.064" y2="738.028" gradientUnits="userSpaceOnUse">
<stop stop-color="#FF1CF7"/>
<stop offset="1" stop-color="#00F0FF" stop-opacity="0.2"/>
</linearGradient>
<linearGradient id="paint49_linear_165_3429" x1="298.762" y1="448.242" x2="767.474" y2="753.713" gradientUnits="userSpaceOnUse">
<stop stop-color="#FF1CF7"/>
<stop offset="1" stop-color="#00F0FF" stop-opacity="0.2"/>
</linearGradient>
<linearGradient id="paint50_linear_165_3429" x1="292.532" y1="444.116" x2="737.483" y2="768.552" gradientUnits="userSpaceOnUse">
<stop stop-color="#FF1CF7"/>
<stop offset="1" stop-color="#00F0FF" stop-opacity="0.2"/>
</linearGradient>
<linearGradient id="paint51_linear_165_3429" x1="286.633" y1="440.77" x2="707.151" y2="782.522" gradientUnits="userSpaceOnUse">
<stop stop-color="#FF1CF7"/>
<stop offset="1" stop-color="#00F0FF" stop-opacity="0.2"/>
</linearGradient>
<linearGradient id="paint52_linear_165_3429" x1="281.014" y1="438.214" x2="676.533" y2="795.616" gradientUnits="userSpaceOnUse">
<stop stop-color="#FF1CF7"/>
<stop offset="1" stop-color="#00F0FF" stop-opacity="0.2"/>
</linearGradient>
<linearGradient id="paint53_linear_165_3429" x1="275.625" y1="436.454" x2="645.686" y2="807.839" gradientUnits="userSpaceOnUse">
<stop stop-color="#FF1CF7"/>
<stop offset="1" stop-color="#00F0FF" stop-opacity="0.2"/>
</linearGradient>
<linearGradient id="paint54_linear_165_3429" x1="270.416" y1="435.492" x2="614.667" y2="819.192" gradientUnits="userSpaceOnUse">
<stop stop-color="#FF1CF7"/>
<stop offset="1" stop-color="#00F0FF" stop-opacity="0.2"/>
</linearGradient>
<linearGradient id="paint55_linear_165_3429" x1="265.337" y1="435.329" x2="583.529" y2="829.671" gradientUnits="userSpaceOnUse">
<stop stop-color="#FF1CF7"/>
<stop offset="1" stop-color="#00F0FF" stop-opacity="0.2"/>
</linearGradient>
<linearGradient id="paint56_linear_165_3429" x1="260.339" y1="435.96" x2="552.327" y2="839.289" gradientUnits="userSpaceOnUse">
<stop stop-color="#FF1CF7"/>
<stop offset="1" stop-color="#00F0FF" stop-opacity="0.2"/>
</linearGradient>
<linearGradient id="paint57_linear_165_3429" x1="255.372" y1="437.38" x2="521.113" y2="848.048" gradientUnits="userSpaceOnUse">
<stop stop-color="#FF1CF7"/>
<stop offset="1" stop-color="#00F0FF" stop-opacity="0.2"/>
</linearGradient>
<linearGradient id="paint58_linear_165_3429" x1="250.391" y1="439.58" x2="489.938" y2="855.969" gradientUnits="userSpaceOnUse">
<stop stop-color="#FF1CF7"/>
<stop offset="1" stop-color="#00F0FF" stop-opacity="0.2"/>
</linearGradient>
<linearGradient id="paint59_linear_165_3429" x1="245.347" y1="442.548" x2="458.851" y2="863.073" gradientUnits="userSpaceOnUse">
<stop stop-color="#FF1CF7"/>
<stop offset="1" stop-color="#00F0FF" stop-opacity="0.2"/>
</linearGradient>
<linearGradient id="paint60_linear_165_3429" x1="240.194" y1="446.269" x2="427.899" y2="869.37" gradientUnits="userSpaceOnUse">
<stop stop-color="#FF1CF7"/>
<stop offset="1" stop-color="#00F0FF" stop-opacity="0.2"/>
</linearGradient>
<linearGradient id="paint61_linear_165_3429" x1="234.89" y1="450.726" x2="397.128" y2="874.881" gradientUnits="userSpaceOnUse">
<stop stop-color="#FF1CF7"/>
<stop offset="1" stop-color="#00F0FF" stop-opacity="0.2"/>
</linearGradient>
<linearGradient id="paint62_linear_165_3429" x1="229.392" y1="455.901" x2="366.581" y2="879.633" gradientUnits="userSpaceOnUse">
<stop stop-color="#FF1CF7"/>
<stop offset="1" stop-color="#00F0FF" stop-opacity="0.2"/>
</linearGradient>
<linearGradient id="paint63_linear_165_3429" x1="223.658" y1="461.77" x2="336.298" y2="883.654" gradientUnits="userSpaceOnUse">
<stop stop-color="#FF1CF7"/>
<stop offset="1" stop-color="#00F0FF" stop-opacity="0.2"/>
</linearGradient>
<linearGradient id="paint64_linear_165_3429" x1="217.649" y1="468.309" x2="306.32" y2="886.97" gradientUnits="userSpaceOnUse">
<stop stop-color="#FF1CF7"/>
<stop offset="1" stop-color="#00F0FF" stop-opacity="0.2"/>
</linearGradient>
<linearGradient id="paint65_linear_165_3429" x1="211.328" y1="475.492" x2="276.683" y2="889.606" gradientUnits="userSpaceOnUse">
<stop stop-color="#FF1CF7"/>
<stop offset="1" stop-color="#00F0FF" stop-opacity="0.2"/>
</linearGradient>
<linearGradient id="paint66_linear_165_3429" x1="204.661" y1="483.29" x2="247.422" y2="891.591" gradientUnits="userSpaceOnUse">
<stop stop-color="#FF1CF7"/>
<stop offset="1" stop-color="#00F0FF" stop-opacity="0.2"/>
</linearGradient>
<linearGradient id="paint67_linear_165_3429" x1="197.613" y1="491.674" x2="218.569" y2="892.972" gradientUnits="userSpaceOnUse">
<stop stop-color="#FF1CF7"/>
<stop offset="1" stop-color="#00F0FF" stop-opacity="0.2"/>
</linearGradient>
<linearGradient id="paint68_linear_165_3429" x1="190.154" y1="500.611" x2="190.154" y2="893.776" gradientUnits="userSpaceOnUse">
<stop stop-color="#FF1CF7"/>
<stop offset="1" stop-color="#00F0FF" stop-opacity="0.2"/>
</linearGradient>
<clipPath id="clip0_165_3429">
<rect width="1151" height="1131" fill="white" transform="translate(0 -183)"/>
</clipPath>
<clipPath id="clip1_165_3429">
<rect width="777" height="743" fill="white" transform="translate(-130 245)"/>
</clipPath>
</defs>
</svg>
